# xmcd
#
# Track frame offsets: 
#        150
#        18976
#        36135
#        54472
#        70335
#        89220
#        109284
#        127529
#        146429
#        162330
#        184081
#
# Disc length: 2691 seconds
#
# Revision: 0
# Processed by: cddbd v1.5.2PL0 Copyright (c) Steve Scherf et al.
# Submitted via: ExactAudioCopy v0.99pb4
#
DISCID=940a810b
DTITLE=Calvin Richardson - All Or Nothing
DYEAR=2017
DGENRE=R&B
TTITLE0=All Or Nothing
TTITLE1=The Only One
TTITLE2=Can't Let Go
TTITLE3=Treat Her Right
TTITLE4=I Love The Way
TTITLE5=Breaking Down Inside
TTITLE6=Make Me Say Nah Nah Nah
TTITLE7=Break It Down
TTITLE8=Flowers
TTITLE9=Make Up Love
TTITLE10=Holding On/Can't Let Go
EXTD=
EXTT0=
EXTT1=
EXTT2=
EXTT3=
EXTT4=
EXTT5=
EXTT6=
EXTT7=
EXTT8=
EXTT9=
EXTT10=
PLAYORDER=
